# AST/ASF file generated using VICON BodyLanguage
# -----------------------------------------------
:version 1.10
:name VICON
:units
  mass 1.0
  length 0.45
  angle deg
:documentation
   .ast/.asf automatically generated from VICON data using
   VICON BodyBuilder and BodyLanguage model FoxedUp or BRILLIANT.MOD
:root
   order TX TY TZ RX RY RZ
   axis XYZ
   position 0 0 0  
   orientation 0 0 0 
:bonedata
  begin
     id 1 
     name lhipjoint
     direction 0.521452 -0.77106 0.36545 
     length 2.0933 
     axis 0 0 0  XYZ
  end
  begin
     id 2 
     name lfemur
     direction 0.34202 -0.939693 0  
     length 6.83441  
     axis 0 0 20  XYZ
    dof rx ry rz
    limits (-160.0 20.0)
           (-70.0 70.0)
           (-60.0 70.0)
  end
  begin
     id 3 
     name ltibia
     direction 0.34202 -0.939693 0   
     length 7.28749   
     axis 0 0 20   XYZ
    dof rx
    limits (-10.0 170.0)
  end
  begin
     id 4 
     name lfoot
     direction 0.100608 -0.276418 0.955757   
     length 1.52195   
     axis -90 7.62852e-016 20   XYZ
    dof rx rz
    limits (-45.0 90.0)
           (-70.0 20.0)
  end
  begin
     id 5 
     name ltoes
     direction 1.53558e-011 -4.21907e-011 1   
     length 0.770459   
     axis -90 7.62852e-016 20   XYZ
    dof rx
    limits (-90.0 20.0)
  end
  begin
     id 6 
     name rhipjoint
     direction -0.488071 -0.788702 0.373812   
     length 2.04648  
     axis 0 0 0  XYZ 
  end
  begin
     id 7 
     name rfemur
     direction -0.34202 -0.939693 0   
     length 6.92583   
     axis 0 0 -20   XYZ
    dof rx ry rz
    limits (-160.0 20.0)
           (-70.0 70.0)
           (-70.0 60.0)
  end
  begin
     id 8 
     name rtibia
     direction -0.34202 -0.939693 0   
     length 7.41043   
     axis 0 0 -20   XYZ
    dof rx
    limits (-10.0 170.0)
 end
 begin
     id 9 
     name rfoot
     direction -0.0784433 -0.215521 0.973343   
     length 1.67708  
     axis -90 -7.62852e-016 -20   XYZ
    dof rx rz
    limits (-45.0 90.0)
           (-20.0 70.0)
  end
  begin
     id 10 
     name rtoes
     direction -1.53551e-011 -4.21842e-011 1   
     length 0.849787   
     axis -90 -7.62852e-016 -20   XYZ
    dof rx
    limits (-90.0 20.0)
  end
  begin
     id 11 
     name lowerback
     direction -0.0122332 0.997575 -0.0685192   
     length 1.98724   
     axis 0 0 0   XYZ
    dof rx ry rz
    limits (-20.0 45.0)
           (-30.0 30.0)
           (-30.0 30.0)
  end
  begin
     id 12 
     name upperback
     direction 0.0182347 0.999724 -0.0148421   
     length 1.99029   
     axis 0 0 0   XYZ
    dof rx ry rz
    limits (-20.0 45.0)
           (-30.0 30.0)
           (-30.0 30.0)
  end
  begin
     id 13 
     name thorax
     direction 0.0242908 0.99956 0.0170184   
     length 1.99573   
     axis 0 0 0   XYZ
    dof rx ry rz
    limits (-20.0 45.0)
           (-30.0 30.0)
           (-30.0 30.0)
  end
  begin
     id 14 
     name lowerneck
     direction 0.0654488 0.985533 0.156338   
     length 1.4285   
     axis 0 0 0   XYZ
    dof rx ry rz
    limits (-20.0 45.0)
           (-30.0 30.0)
           (-30.0 30.0)
  end
  begin
     id 15 
     name upperneck
     direction -0.02953 0.998556 -0.0448842   
     length 1.44709   
     axis 0 0 0   XYZ
    dof rx ry rz
    limits (-20.0 45.0)
           (-30.0 30.0)
           (-30.0 30.0)
  end
  begin
     id 16
     name head
     direction -0.0155588 0.999386 -0.0314063  
     length 1.44689  
     axis 0 0 0   XYZ
    dof rx ry rz
    limits (-20.0 45.0)
           (-30.0 30.0)
           (-30.0 30.0)
  end
  begin
     id 17 
     name lclavicle
     direction 0.968229 0.236071 -0.0824755  
     length 3.60593  
     axis 0 0 0   XYZ
    dof ry rz
    limits (-20.0 10.0)
           (0.0 20.0)
  end
  begin
     id 18 
     name lhumerus
     direction 1 -4.48968e-011 7.8138e-029   
     length 5.06035   
     axis 180 -30 -90   XYZ
    dof rx ry rz
    limits (-60.0 90.0)
           (-90.0 90.0)
           (-90.0 90.0)
  end
  begin
     id 19
     name lradius
     direction 1 -4.48967e-011 9.02887e-028   
     length 3.1478   
     axis 180 -30 -90   XYZ
    dof rx
    limits (-10.0 170.0)
  end
  begin
     id 20
     name lwrist
     direction 1 -4.48961e-011 7.20928e-028   
     length 1.5739   
     axis -5.52449e-016 90 90   XYZ
    dof ry
    limits (-180.0 0.0)
 end
  begin
     id 21 
     name lhand
     direction 1 -4.48972e-011 1.44186e-027   
     length 0.606747   
     axis -9.20027e-016 90 90   XYZ
    dof rx rz
    limits (-90.0 90.0)
           (-45.0 45.0)
  end
  begin
     id 22 
     name lfingers
     direction 1 -4.48943e-011 2.88371e-027   
     length 0.489175   
     axis -1.84005e-015 90 90   XYZ
    dof rx
    limits (0.0 90.0)
  end
  begin
     id 23
     name lthumb
     direction 0.707107 -6.34917e-011 0.707107   
     length 0.70236   
     axis -90 45 2.85299e-015   XYZ
    dof rx rz
    limits (-45.0 45.0)
           (-45.0 45.0)
  end
  begin
     id 24 
     name rclavicle
     direction -0.978165 0.207816 0.0022268   
     length 3.35425  
     axis 0 0 0   XYZ 
    dof ry rz
    limits (-10.0 20.0)
           (-20.0 0.0)
  end
  begin
     id 25 
     name rhumerus
     direction -1 -4.48964e-011 -4.02159e-027  
     length 5.12273   
     axis 180 30 90   XYZ
    dof rx ry rz
    limits (-90.0 60.0)
           (-90.0 90.0)
           (-90.0 90.0)
  end
  begin
     id 26 
     name rradius
     direction -1 -4.48966e-011 1.62746e-027   
     length 3.422   
     axis 180 30 90   XYZ
    dof rx
    limits (-10.0 170.0)
  end
  begin
     id 27 
     name rwrist
     direction -1 -4.4896e-011 7.20928e-028   
     length 1.711   
     axis -5.52449e-016 -90 -90   XYZ
    dof ry
    limits (-180.0 0.0)
  end
  begin
     id 28
     name rhand
     direction -1 -4.48979e-011 1.44186e-027   
     length 0.704599   
     axis -9.20027e-016 -90 -90   XYZ
    dof rx rz
    limits (-90.0 90.0)
           (-45.0 45.0)
  end
  begin
     id 29
     name rfingers
     direction -1 -4.48962e-011 2.88371e-027   
     length 0.568066   
     axis -1.84005e-015 -90 -90   XYZ
    dof rx
    limits (0.0 90.0)
  end
  begin
     id 30
     name rthumb
     direction -0.707107 -6.34949e-011 0.707107   
     length 0.815633   
     axis -90 -45 -2.85299e-015   XYZ
    dof rx rz
    limits (-45.0 45.0)
           (-45.0 45.0)
  end
:hierarchy
  begin
    root lhipjoint rhipjoint lowerback
    lhipjoint lfemur
    lfemur ltibia
    ltibia lfoot
    lfoot ltoes
    rhipjoint rfemur
    rfemur rtibia
    rtibia rfoot
    rfoot rtoes
    lowerback upperback
    upperback thorax
    thorax lowerneck lclavicle rclavicle
    lowerneck upperneck
    upperneck head
    lclavicle lhumerus
    lhumerus lradius
    lradius lwrist
    lwrist lhand lthumb
    lhand lfingers
    rclavicle rhumerus
    rhumerus rradius
    rradius rwrist
    rwrist rhand rthumb
    rhand rfingers
  end

#!OML:ASF E:\id_vita\Project 1\Capture day 1\Session 1\Male1.ASF
:FULLY-SPECIFIED
:DEGREES
713
root 3.16714 27.1654 0.423699 -157.608 82.33 -172.497
lowerback 11.3943 -0.456204 -9.60758
upperback 8.15271 -0.86474 -2.67219
thorax 2.38554 -0.539999 2.66594
lowerneck 4.58441 7.81333 7.73114
upperneck -10.3739 11.0055 -3.35662
head -3.57143 5.40328 -2.9111
rclavicle 2.06736e-014 -6.36111e-015
rhumerus 35.804 19.2458 -71.9309
rradius 118.642
rwrist 2.41095
rhand -31.8152 35.6939
rfingers 7.12502
rthumb -5.07026 5.77454
lclavicle 2.06736e-014 -6.36111e-015
lhumerus 40.2512 -3.60895 62.2454
lradius 124.834
lwrist -7.48569
lhand -25.5323 46.2873
lfingers 7.12502
lthumb 0.997428 76.2647
rfemur -32.4719 -3.10763 20.1391
rtibia 29.2075
rfoot -8.41479 -8.78192
rtoes -9.06344
lfemur -30.775 -1.25326 -16.0139
ltibia 33.459
lfoot -20.6326 -1.8363
ltoes 25.2782
714
root 3.16521 27.1662 0.419736 -157.299 82.4292 -172.111
lowerback 11.3355 -0.41556 -9.62327
upperback 8.21255 -0.795177 -2.71452
thorax 2.47411 -0.508009 2.62274
lowerneck 4.42588 7.83367 7.7025
upperneck -10.2362 11.0201 -3.30177
head -3.4962 5.41243 -2.87106
rclavicle 4.77083e-015 -4.77083e-015
rhumerus 35.9063 19.2506 -71.9911
rradius 118.582
rwrist 2.45407
rhand -31.8243 35.5745
rfingers 7.12502
rthumb -5.07904 5.65541
lclavicle 4.77083e-015 -4.77083e-015
lhumerus 40.2839 -3.62362 62.0917
lradius 124.771
lwrist -7.70045
lhand -25.5562 46.6261
lfingers 7.12502
lthumb 0.974367 76.6037
rfemur -32.422 -2.94677 20.1135
rtibia 29.2302
rfoot -8.41401 -8.81599
rtoes -8.62655
lfemur -30.653 -1.20821 -16.0027
ltibia 33.4276
lfoot -20.6726 -1.79587
ltoes 25.5103
715
root 3.16771 27.167 0.407633 -159.019 82.533 -173.725
lowerback 11.6693 -0.386352 -9.78328
upperback 8.05604 -0.825488 -2.83454
thorax 2.13267 -0.50814 2.5939
lowerneck 4.54001 7.76055 7.45067
upperneck -10.0796 10.9439 -2.9041
head -3.50377 5.36672 -2.69591
rclavicle -2.70347e-014 -5.08889e-014
rhumerus 35.67 19.286 -72.1903
rradius 118.495
rwrist 2.32389
rhand -31.8432 35.4004
rfingers 7.12502
rthumb -5.09731 5.48171
lclavicle -2.70347e-014 -5.08889e-014
lhumerus 40.117 -3.91676 61.8831
lradius 124.842
lwrist -8.5893
lhand -25.1878 48.1696
lfingers 7.12502
lthumb 1.33022 78.1452
rfemur -32.2913 -2.95755 19.8074
rtibia 29.2634
rfoot -8.55899 -8.74153
rtoes -7.80369
lfemur -30.4438 -1.37041 -16.271
ltibia 33.3671
lfoot -20.684 -1.57757
ltoes 25.4809
716
root 3.16641 27.1692 0.39743 -160.037 82.515 -174.746
lowerback 11.2506 -0.263942 -10.0861
upperback 8.31925 -0.603145 -2.68375
thorax 2.63352 -0.437711 2.89204
lowerneck 4.91073 7.58582 7.48804
upperneck -10.601 10.7143 -3.28897
head -3.74946 5.25675 -2.8744
rclavicle -7.15625e-015 -1.43125e-014
rhumerus 36.0289 18.9459 -71.6861
rradius 118.5
rwrist 2.41829
rhand -31.8081 35.2686
rfingers 7.12502
rthumb -5.06342 5.34912
lclavicle -7.15625e-015 -1.43125e-014
lhumerus 40.7116 -4.02529 62.2925
lradius 124.642
lwrist -8.34889
lhand -26.1087 47.708
lfingers 7.12502
lthumb 0.440761 77.6873
rfemur -32.2796 -3.03433 19.6469
rtibia 29.2919
rfoot -8.64024 -8.72499
rtoes -7.69601
lfemur -30.4028 -1.47492 -16.4253
ltibia 33.2878
lfoot -20.6259 -1.55811
ltoes 25.6917
717
root 3.16188 27.1696 0.390745 -160.353 82.5317 -175.087
lowerback 11.3156 -0.218114 -10.1132
upperback 8.216 -0.568578 -2.69761
thorax 2.48284 -0.414344 2.89134
lowerneck 5.6737 7.5655 7.49029
upperneck -10.9978 10.7323 -3.4535
head -4.02998 5.2612 -3
rclavicle 1.59028e-015 2.8625e-014
rhumerus 35.7918 18.9864 -71.7747
rradius 118.528
rwrist 2.65081
rhand -31.8368 35.3494
rfingers 7.12502
rthumb -5.09116 5.43054
lclavicle 1.59028e-015 2.8625e-014
lhumerus 40.6993 -4.03421 62.4906
lradius 124.564
lwrist -7.84641
lhand -26.2747 47.025
lfingers 7.12502
lthumb 0.280398 77.0046
rfemur -32.3126 -3.04894 19.5763
rtibia 29.2932
rfoot -8.54524 -8.75061
rtoes -8.31526
lfemur -30.4034 -1.44331 -16.5092
ltibia 33.2164
lfoot -20.5486 -1.66623
ltoes 25.944
718
root 3.16082 27.1708 0.388104 -159.683 82.6163 -174.394
lowerback 11.2247 -0.151569 -10.0286
upperback 8.22798 -0.460736 -2.7511
thorax 2.52785 -0.357774 2.77852
lowerneck 5.73382 7.49241 7.62357
upperneck -11.5504 10.6175 -3.73575
head -3.78752 5.22645 -2.83349
rclavicle -2.70347e-014 2.8625e-014
rhumerus 35.6359 18.8669 -71.9777
rradius 118.598
rwrist 2.66716
rhand -31.8411 35.3609
rfingers 7.12502
rthumb -5.09533 5.44216
lclavicle -2.70347e-014 2.8625e-014
lhumerus 40.8122 -4.0793 62.5287
lradius 124.482
lwrist -7.64649
lhand -26.0192 46.8012
lfingers 7.12502
lthumb 0.527211 76.7803
rfemur -32.2938 -2.889 19.6061
rtibia 29.2349
rfoot -8.40496 -8.79156
rtoes -8.80918
lfemur -30.3585 -1.55367 -16.4117
ltibia 33.1968
lfoot -20.5353 -1.44777
ltoes 25.9178
719
root 3.16049 27.173 0.385657 -158.766 82.6679 -173.458
lowerback 11 -0.150671 -9.91008
upperback 8.36189 -0.402441 -2.79067
thorax 2.78324 -0.334267 2.66379
lowerneck 5.5325 7.53841 7.57377
upperneck -11.5532 10.6739 -3.65239
head -3.75992 5.25397 -2.79356
rclavicle -3.02153e-014 -7.63333e-014
rhumerus 35.8159 18.7677 -72.069
rradius 118.662
rwrist 2.57572
rhand -31.8303 35.2179
rfingers 7.12502
rthumb -5.08491 5.29895
lclavicle -3.02153e-014 -7.63333e-014
lhumerus 40.948 -3.98347 62.4601
lradius 124.493
lwrist -7.56331
lhand -26.0267 46.6511
lfingers 7.12502
lthumb 0.519909 76.6302
rfemur -32.2599 -2.72785 19.667
rtibia 29.1446
rfoot -8.34683 -8.8141
rtoes -8.6282
lfemur -30.3409 -1.74939 -16.2537
ltibia 33.2195
lfoot -20.6315 -1.176
ltoes 25.7419
720
root 3.15731 27.1732 0.378867 -158.654 82.6548 -173.357
lowerback 11.4617 -0.0858666 -10.0306
upperback 8.0329 -0.436067 -2.70156
thorax 2.18526 -0.332542 2.83319
lowerneck 5.54779 7.52909 7.64854
upperneck -10.8533 10.6883 -3.42707
head -3.94977 5.23519 -3.00129
rclavicle 2.78299e-014 1.27222e-014
rhumerus 35.3209 18.893 -72.2142
rradius 118.658
rwrist 2.42791
rhand -31.8466 35.0271
rfingers 7.12502
rthumb -5.10064 5.10849
lclavicle 2.78299e-014 1.27222e-014
lhumerus 40.4529 -4.10346 62.6502
lradius 124.555
lwrist -7.3684
lhand -26.1134 46.3621
lfingers 7.12502
lthumb 0.436179 76.3414
rfemur -32.2396 -2.78601 19.6671
rtibia 29.0516
rfoot -8.30483 -8.74558
rtoes -8.36161
lfemur -30.3777 -1.82557 -16.2509
ltibia 33.2564
lfoot -20.6746 -1.13915
ltoes 25.7369
721
root 3.15566 27.1733 0.372001 -158.161 82.5652 -172.828
lowerback 11.4475 -0.149976 -9.89754
upperback 8.03485 -0.505343 -2.76582
thorax 2.19767 -0.360056 2.6984
lowerneck 5.54969 7.57 7.8036
upperneck -10.7731 10.7612 -3.38941
head -3.91118 5.26577 -3.01292
rclavicle -3.73715e-014 -3.18055e-014
rhumerus 35.3213 18.9705 -72.4246
rradius 118.637
rwrist 2.33177
rhand -31.8433 34.8106
rfingers 7.12502
rthumb -5.09741 4.89194
lclavicle -3.73715e-014 -3.18055e-014
lhumerus 40.4167 -4.07132 62.448
lradius 124.572
lwrist -7.46469
lhand -26.145 46.8395
lfingers 7.12502
lthumb 0.405694 76.8189
rfemur -32.1472 -2.90398 19.7642
rtibia 28.9682
rfoot -8.27839 -8.69164
rtoes -8.32198
lfemur -30.3881 -1.66125 -16.2367
ltibia 33.3101
lfoot -20.6524 -1.32711
ltoes 25.7905
722
root 3.15162 27.1752 0.367494 -157.471 82.4511 -172.193
lowerback 11.31 -0.189033 -9.78257
upperback 8.04715 -0.530645 -2.76206
thorax 2.28405 -0.373064 2.63991
lowerneck 5.48427 7.57059 7.9354
upperneck -10.6666 10.7561 -3.47249
head -3.84923 5.26443 -3.05331
rclavicle 0 -2.54444e-014
rhumerus 35.4375 18.982 -72.419
rradius 118.673
rwrist 2.34121
rhand -31.828 34.6396
rfingers 7.12502
rthumb -5.08269 4.72056
lclavicle 0 -2.54444e-014
lhumerus 40.4506 -4.05894 62.3845
lradius 124.621
lwrist -7.43057
lhand -26.1747 47.1173
lfingers 7.12502
lthumb 0.376979 77.0967
rfemur -32.1698 -2.91278 19.8568
rtibia 28.9032
rfoot -8.22845 -8.7265
rtoes -8.08427
lfemur -30.5288 -1.39178 -16.2161
ltibia 33.3733
lfoot -20.6228 -1.63936
ltoes 25.7525
